<mxfile host="app.diagrams.net" modified="2024-05-13T13:57:02.491Z" agent="Mozilla/5.0 (Windows NT 10.0; Win64; x64) AppleWebKit/537.36 (KHTML, like Gecko) Chrome/124.0.0.0 Safari/537.36" etag="7dbx4muijDnluV25xDqV" version="24.4.0" type="device">
  <diagram name="Page-1" id="R9gOqkwziTcU4TE3PzCT">
    <mxGraphModel dx="756" dy="437" grid="1" gridSize="10" guides="1" tooltips="1" connect="1" arrows="1" fold="1" page="1" pageScale="1" pageWidth="850" pageHeight="1100" math="0" shadow="0">
      <root>
        <mxCell id="0" />
        <mxCell id="1" parent="0" />
        <mxCell id="j3k2rpyeUrFcCAQPjTth-3" style="edgeStyle=orthogonalEdgeStyle;rounded=0;orthogonalLoop=1;jettySize=auto;html=1;" edge="1" parent="1" source="j3k2rpyeUrFcCAQPjTth-1" target="j3k2rpyeUrFcCAQPjTth-2">
          <mxGeometry relative="1" as="geometry" />
        </mxCell>
        <mxCell id="j3k2rpyeUrFcCAQPjTth-1" value="" style="dashed=0;outlineConnect=0;html=1;align=center;labelPosition=center;verticalLabelPosition=bottom;verticalAlign=top;shape=mxgraph.weblogos.github" vertex="1" parent="1">
          <mxGeometry x="300" y="180" width="75" height="75" as="geometry" />
        </mxCell>
        <mxCell id="j3k2rpyeUrFcCAQPjTth-2" value="" style="outlineConnect=0;dashed=0;verticalLabelPosition=bottom;verticalAlign=top;align=center;html=1;shape=mxgraph.aws3.ec2;fillColor=#F58534;gradientColor=none;" vertex="1" parent="1">
          <mxGeometry x="610" y="180" width="76.5" height="93" as="geometry" />
        </mxCell>
      </root>
    </mxGraphModel>
  </diagram>
</mxfile>
